<?xml version="1.0" standalone="no"?>
<!DOCTYPE svg PUBLIC "-//W3C//DTD SVG 20010904//EN"
 "http://www.w3.org/TR/2001/REC-SVG-20010904/DTD/svg10.dtd">
<svg version="1.0" xmlns="http://www.w3.org/2000/svg"
 width="110.000000px" height="20.000000px" viewBox="0 0 110.000000 20.000000"
 preserveAspectRatio="xMidYMid meet">
<metadata>
Created by potrace 1.11, edited by Kevin (I have no idea how SVGs work)
</metadata>
<g transform="translate(0.000000,20.000000) scale(0.008772,-0.008772)"
fill="#000000" stroke="none">
<path d="M230 925 l0 -805 210 0 210 0 0 805 0 805 -210 0 -210 0 0 -805z"/>
<path d="M830 925 l0 -805 185 0 185 0 0 260 c0 240 4 283 25 250 4 -6 24
-120 46 -253 22 -133 43 -245 48 -250 4 -4 70 -6 147 -5 l139 3 40 245 c22
135 44 251 48 258 23 35 27 -4 27 -248 l0 -260 185 0 185 0 0 805 0 805 -165
0 c-203 0 -251 -15 -291 -91 -7 -14 -47 -226 -88 -469 -42 -244 -80 -448 -84
-452 -13 -13 -11 -20 -87 432 -79 469 -80 475 -107 513 -40 56 -83 67 -270 67
l-168 0 0 -805z"/>
<path d="M2260 925 l0 -805 200 0 200 0 0 205 0 205 230 0 c266 0 290 5 318
67 15 34 17 86 17 513 0 507 -2 535 -49 579 -13 12 -41 27 -63 32 -21 5 -221
9 -445 9 l-408 0 0 -805z m541 160 c41 -21 49 -50 49 -164 0 -157 -17 -181
-130 -181 l-60 0 0 180 0 180 55 0 c31 0 69 -7 86 -15z"/>
<path d="M3457 1720 c-54 -10 -94 -52 -106 -112 -7 -32 -11 -288 -11 -721 0
-648 1 -673 20 -704 35 -59 29 -58 478 -61 l413 -3 -3 108 -3 108 -246 3
c-287 3 -274 -2 -273 100 0 51 4 68 19 78 15 11 72 14 257 14 l238 0 0 105 0
105 -244 0 c-214 0 -245 2 -257 17 -11 12 -14 53 -14 160 0 197 -22 183 286
183 l239 0 0 315 0 315 -377 -1 c-208 -1 -395 -5 -416 -9z"/>
<path d="M4400 925 l0 -805 190 0 190 0 2 183 3 182 93 3 c87 3 94 1 117 -22
24 -24 25 -30 25 -159 0 -191 -12 -181 220 -185 l182 -3 -21 27 c-20 25 -21
39 -21 196 0 213 -13 251 -92 267 l-32 7 49 24 c77 39 76 32 73 540 -3 484 -4
491 -70 527 -30 16 -70 18 -470 21 l-438 3 0 -806z m600 155 c18 -18 20 -33
20 -184 0 -136 -3 -167 -16 -180 -12 -13 -38 -16 -120 -16 l-104 0 0 193 c0
107 3 197 7 200 3 4 48 7 100 7 80 0 96 -3 113 -20z"/>
<path d="M5550 925 l0 -805 210 0 210 0 0 805 0 805 -210 0 -210 0 0 -805z"/>
<path d="M6140 925 l0 -805 470 0 470 0 0 310 0 310 -190 0 -190 0 0 -184 c0
-215 0 -216 -85 -216 -43 0 -56 4 -65 19 -6 13 -10 249 -10 695 l0 676 -200 0
-200 0 0 -805z"/>
<path d="M7210 925 l0 -805 185 0 185 0 0 260 c0 219 2 260 14 260 19 0 20 -2
61 -255 19 -121 37 -230 40 -242 5 -23 8 -23 150 -23 109 0 145 3 146 13 0 6
20 122 42 256 26 153 47 246 54 249 10 3 13 -55 15 -255 l3 -258 188 -3 187
-2 0 806 0 806 -182 -4 c-162 -3 -187 -5 -218 -23 -62 -36 -72 -72 -150 -540
-39 -236 -74 -436 -76 -444 -3 -9 -8 -11 -13 -5 -5 5 -41 200 -81 434 -77 458
-82 483 -110 518 -41 50 -91 62 -272 62 l-168 0 0 -805z"/>
<path d="M8760 1721 c-51 -11 -78 -28 -97 -64 -17 -30 -18 -86 -21 -727 -2
-481 0 -707 8 -732 21 -72 22 -73 483 -76 l407 -3 0 110 0 111 -244 0 c-242 0
-245 0 -260 22 -24 34 -21 123 4 148 19 19 33 20 255 20 l235 0 0 105 0 105
-238 0 c-219 0 -240 2 -255 18 -23 25 -25 287 -3 318 13 18 30 19 260 22 l246
3 0 314 0 315 -372 -1 c-205 -1 -389 -4 -408 -8z"/>
<path d="M9690 926 l0 -806 195 0 195 0 2 262 c3 237 5 263 20 266 36 7 54
-33 108 -243 59 -227 74 -257 138 -275 20 -5 126 -10 235 -10 l197 0 0 805 0
805 -190 0 -190 0 0 -535 c0 -488 -4 -583 -24 -517 -3 9 -50 225 -105 480 -57
263 -107 476 -118 494 -10 17 -31 40 -46 52 -26 19 -44 21 -223 24 l-194 4 0
-806z"/>
<path d="M10880 1416 l0 -314 136 -4 c121 -3 137 -5 150 -22 12 -17 14 -100
14 -488 l0 -468 185 0 184 0 3 471 3 471 24 19 c20 16 40 19 147 19 l124 0 0
315 0 315 -485 0 -485 0 0 -314z"/>
<path d="M11980 1100 l0 -630 215 0 215 0 0 630 0 630 -215 0 -215 0 0 -630z"/>
<path d="M11980 240 l0 -120 215 0 216 0 -3 118 -3 117 -212 3 -213 2 0 -120z"/>
</g>
</svg>
