<svg xmlns="http://www.w3.org/2000/svg" height="14.5" width="110"><path d="M.002 14.498V0h3.773V14.5H0"/><path d="M13.43 14.498V9.82h-.09c-.062 0-.11.014-.146.038-.036.024-.066.084-.09.18l-.704 4.333c-.024.086-.078.128-.163.128H9.89c-.084 0-.138-.042-.162-.127l-.704-4.33C9 9.94 8.97 9.88 8.934 9.857c-.036-.024-.085-.036-.145-.036H8.7v4.676H5.357V.002h2.547c.47 0 .853.108 1.155.325.3.216.5.577.596 1.082l1.3 7.67c.012.073.048.11.108.11.048 0 .084-.037.108-.11l1.3-7.67c.083-.507.276-.867.577-1.084C13.362.11 13.753 0 14.223 0h2.544v14.497h-3.34"/><path d="M23.607 6.518c0-.54-.277-.812-.83-.812h-.867v3.23h.795c.6 0 .9-.245.9-.74V6.52m-5.305 7.98V.002h6.842c.373 0 .68.03.92.09.242.062.433.182.578.362.145.17.242.41.29.722.06.314.09.722.09 1.228v6.534c0 .398-.03.723-.09.976-.048.252-.134.445-.254.577-.12.133-.284.224-.488.272-.193.048-.433.072-.722.072H21.91v3.664H18.3"/><path d="M29.582 14.498c-.578 0-.974-.103-1.192-.306-.217-.218-.325-.61-.325-1.175V2.404c0-.505.03-.914.09-1.227.06-.325.163-.572.306-.74.158-.17.375-.282.652-.343.277-.06.632-.09 1.065-.09h6.084v5.704h-4.17c-.36 0-.54.17-.54.505V8.47c0 .313.155.47.468.47h4.153v1.894H32.02c-.314 0-.47.194-.47.58v.612c0 .374.188.56.56.56h4.153V14.5h-6.678"/><path d="M44.12 14.498c-.6 0-.902-.282-.902-.85V11.79c0-.387-.18-.578-.54-.578h-1.554v3.286h-3.502V0h6.896c.41 0 .74.03.993.093.266.06.47.173.615.342.143.17.24.41.288.722.06.314.09.73.09 1.247v6.01c0 .555-.102.946-.306 1.174-.205.23-.555.373-1.048.433.24.026.445.067.613.128.18.048.325.132.434.252.108.12.186.28.234.487.05.192.073.438.073.74v2.165c0 .205.03.355.09.452.06.097.15.18.27.253h-2.742m-.902-8.323c0-.312-.145-.47-.433-.47h-1.66V9.3h1.553c.36 0 .54-.102.54-.306V6.175"/><path d="M48.026 14.498V0H51.8V14.5h-3.774"/><path d="M53.383 14.498V0h3.574v12.024c0 .374.187.56.56.56h.344c.374 0 .56-.186.56-.56V8.94h3.43v5.56h-8.467"/><path d="M71.114 14.498V9.82h-.09c-.06 0-.11.014-.145.038-.037.024-.067.084-.09.18l-.705 4.333c-.024.086-.078.128-.162.128h-2.347c-.084 0-.14-.042-.163-.127l-.704-4.33c-.025-.098-.055-.158-.09-.182-.037-.024-.085-.036-.146-.036h-.09v4.676h-3.34V.002h2.546c.468 0 .853.108 1.155.325.3.216.5.577.595 1.082l1.3 7.67c.01.073.048.11.108.11.048 0 .084-.037.108-.11l1.3-7.67c.083-.507.276-.867.577-1.084C71.047.11 71.437 0 71.908 0h2.544v14.497h-3.34"/><path d="M77.43 14.498c-.58 0-.976-.103-1.192-.306-.217-.218-.325-.61-.325-1.175V2.404c0-.505.03-.914.09-1.227.06-.325.163-.572.306-.74.156-.17.373-.282.65-.343.276-.06.63-.09 1.065-.09h6.083v5.704h-4.17c-.362 0-.54.17-.54.505V8.47c0 .313.156.47.47.47h4.15v1.894h-4.15c-.315 0-.47.194-.47.58v.612c0 .374.187.56.56.56h4.152V14.5h-6.68"/><path d="M91.933 14.498c-.433 0-.753-.078-.958-.235-.204-.17-.354-.446-.45-.83l-.867-3.322c-.06-.228-.2-.342-.415-.342h-.29v4.73H85.47V0h2.78c.456 0 .81.116 1.064.345.253.218.427.53.523.94l1.788 8.303c.012.084.054.126.127.126h.054V.002h3.447V14.5h-3.32"/><path d="M98.9 14.498v-8.25c0-.362-.198-.542-.595-.542H96.21V.002h8.756v5.704h-2.094c-.23 0-.385.048-.47.145-.084.085-.126.218-.126.398v8.25H98.9"/><path d="M106.136 14.498v-2.095H110v2.095h-3.864m0-3.124V0H110v11.374h-3.864"/></svg>